#!OML:ASF I:\Actors\actors\Patient Classification 2\Patient 1\Session 1\actor1.ASF
:FULLY-SPECIFIED
:DEGREES
187
root -0.855782 18.6998 5.36849 0.234091 -0.197846 -1.91284
lowerback 8.09389 0.013349 3.15283
upperback -0.4411 0.404411 1.61573
thorax -4.995 0.138657 -0.141683
lowerneck -13.9865 -7.23114 -6.03584
upperneck 25.8607 -10.9996 7.76877
head 11.5195 -4.66892 2.27072
rclavicle 2.45996e-015 1.66979e-014
rhumerus -29.7935 15.9111 -89.9277
rradius 83.0448
rwrist -43.2957
rhand 8.66027 -52.838
rfingers 7.12502
rthumb 33.8546 -79.6539
lclavicle 2.45996e-015 1.66979e-014
lhumerus -30.334 -29.5009 103.748
lradius 68.4579
lwrist 27.4545
lhand -15.1308 -19.7974
lfingers 7.12502
lthumb 11.0386 9.89237
rfemur 7.10287 -2.69778 16.0316
rtibia -2.46493e-014
rfoot -13.7639 -8.12731
rtoes -5.13589
lfemur -5.68549 -2.60634 -11.3126
ltibia 22.2739
lfoot -19.5956 10.8293
ltoes -57.073
188
root -0.856895 18.7017 5.35302 0.264731 -0.0292553 -1.84255
lowerback 8.30352 -0.109142 3.38192
upperback -0.377582 0.276973 1.7215
thorax -5.05012 0.0709792 -0.1446
lowerneck -13.9901 -7.26569 -6.06251
upperneck 25.6592 -11.0157 7.74946
head 11.4448 -4.68513 2.26427
rclavicle -1.04362e-014 -1.86858e-014
rhumerus -29.5164 16.6842 -90.1664
rradius 83.6633
rwrist -44.5697
rhand 8.15365 -53.3528
rfingers 7.12502
rthumb 33.3731 -80.2735
lclavicle -1.04362e-014 -1.86858e-014
lhumerus -29.1477 -30.5641 104.071
lradius 68.8658
lwrist 27.7147
lhand -15.1299 -20.3064
lfingers 7.12502
lthumb 11.0394 9.38332
rfemur 7.03577 -2.86586 15.9518
rtibia -3.26007e-014
rfoot -13.7096 -8.18337
rtoes -4.87323
lfemur -5.86324 -2.48672 -11.3618
ltibia 22.3411
lfoot -19.4159 10.6028
ltoes -57.1054
189
root -0.855742 18.7028 5.3389 0.288397 0.177185 -1.7623
lowerback 8.49336 -0.250822 3.63802
upperback -0.330399 0.126709 1.81273
thorax -5.11225 -0.00904228 -0.17403
lowerneck -13.956 -7.31466 -6.10451
upperneck 25.4679 -11.05 7.72374
head 11.3687 -4.71271 2.25656
rclavicle 7.45443e-015 -9.93923e-015
rhumerus -29.2773 17.3356 -90.4543
rradius 84.2086
rwrist -46.0484
rhand 6.83316 -53.5956
rfingers 7.12502
rthumb 32.1169 -80.7781
lclavicle 7.45443e-015 -9.93923e-015
lhumerus -27.9052 -31.5987 104.37
lradius 68.9787
lwrist 27.8825
lhand -14.8981 -21.0916
lfingers 7.12502
lthumb 11.2631 8.58603
rfemur 6.9872 -3.07115 15.8589
rtibia 3.18055e-014
rfoot -13.6231 -8.29602
rtoes -5.17568
lfemur -6.02944 -2.41075 -11.4363
ltibia 22.3933
lfoot -19.2534 10.3991
ltoes -57.1727
190
root -0.854198 18.7037 5.32806 0.314452 0.404953 -1.68375
lowerback 8.60807 -0.39973 3.89724
upperback -0.288152 -0.0361649 1.89479
thorax -5.13834 -0.0950001 -0.212616
lowerneck -13.9571 -7.39152 -6.19761
upperneck 25.3771 -11.1559 7.81978
head 11.3561 -4.7597 2.2896
rclavicle 6.26172e-015 -9.54166e-015
rhumerus -28.9567 17.7367 -90.7956
rradius 84.0013
rwrist -46.6122
rhand 6.55062 -50.395
rfingers 7.12502
rthumb 31.8478 -77.6313
lclavicle 6.26172e-015 -9.54166e-015
lhumerus -26.6958 -32.6018 104.587
lradius 68.9021
lwrist 28.0412
lhand -14.5792 -21.8855
lfingers 7.12502
lthumb 11.5706 7.77509
rfemur 6.96126 -3.29807 15.7645
rtibia -2.78299e-014
rfoot -13.5682 -8.37717
rtoes -5.39844
lfemur -6.17537 -2.42752 -11.5163
ltibia 22.4318
lfoot -19.1274 10.2177
ltoes -57.1602
191
root -0.853019 18.7046 5.31997 0.355171 0.631619 -1.63933
lowerback 8.6342 -0.560551 4.20704
upperback -0.233355 -0.214862 1.97666
thorax -5.10307 -0.188962 -0.277934
lowerneck -14.0009 -7.43482 -6.25488
upperneck 25.2765 -11.2388 7.98126
head 11.3488 -4.78412 2.34271
rclavicle -1.52567e-014 3.26007e-014
rhumerus -28.4244 17.7963 -91.1419
rradius 83.8519
rwrist -46.4872
rhand 5.78253 -49.3773
rfingers 7.12502
rthumb 31.1161 -76.7566
lclavicle -1.52567e-014 3.26007e-014
lhumerus -25.5529 -33.4913 104.702
lradius 68.7446
lwrist 28.3158
lhand -14.9636 -21.8227
lfingers 7.12502
lthumb 11.1999 7.8584
rfemur 6.93567 -3.52586 15.7106
rtibia -5.56597e-015
rfoot -13.5425 -8.43518
rtoes -5.60065
lfemur -6.32183 -2.38769 -11.5442
ltibia 22.4566
lfoot -18.9927 9.96477
ltoes -57.1276
192
root -0.850866 18.7053 5.31268 0.384216 0.795549 -1.60449
lowerback 8.65647 -0.730924 4.55429
upperback -0.197921 -0.401798 2.05893
thorax -5.08797 -0.288273 -0.36236
lowerneck -14.0257 -7.41913 -6.15016
upperneck 25.1895 -11.2223 7.94123
head 11.3097 -4.77264 2.31239
rclavicle -1.39646e-014 1.82882e-014
rhumerus -27.7361 17.0854 -91.2434
rradius 83.9064
rwrist -48.1522
rhand 5.54704 -52.0244
rfingers 7.12502
rthumb 30.8916 -79.4465
lclavicle -1.39646e-014 1.82882e-014
lhumerus -24.6099 -34.2625 104.769
lradius 68.5472
lwrist 28.9374
lhand -15.9227 -21.162
lfingers 7.12502
lthumb 10.2747 8.56705
rfemur 6.91081 -3.69016 15.6666
rtibia -4.05521e-014
rfoot -13.5043 -8.49107
rtoes -5.86564
lfemur -6.43908 -2.21089 -11.5552
ltibia 22.4721
lfoot -18.8453 9.66728
ltoes -57.0667
193
root -0.847949 18.7049 5.30493 0.349085 0.740721 -1.57673
lowerback 8.76224 -0.856407 4.85225
upperback -0.15076 -0.526719 2.18153
thorax -5.10562 -0.355512 -0.383986
lowerneck -14.1321 -7.41866 -6.01942
upperneck 25.2079 -11.201 7.75875
head 11.3149 -4.76834 2.22448
rclavicle -5.11871e-015 2.8625e-014
rhumerus -27.1243 16.3733 -91.4267
rradius 83.6228
rwrist -49.1191
rhand 4.74019 -52.4124
rfingers 7.12502
rthumb 30.1221 -79.9775
lclavicle -5.11871e-015 2.8625e-014
lhumerus -23.8183 -34.9118 104.792
lradius 68.3338
lwrist 29.8215
lhand -17.0703 -20.6091
lfingers 7.12502
lthumb 9.16752 9.17162
rfemur 6.91024 -3.63048 15.6222
rtibia -1.27222e-014
rfoot -13.4466 -8.52681
rtoes -5.8787
lfemur -6.42084 -2.03426 -11.5835
ltibia 22.4866
lfoot -18.8199 9.52122
ltoes -56.9372
